<?xml version="1.0" encoding="UTF-8"?>
<svg id="Ebene_1" xmlns="http://www.w3.org/2000/svg" width="1200" height="1200" version="1.1" viewBox="0 0 1200 1200">
  <!-- Generator: Adobe Illustrator 29.2.0, SVG Export Plug-In . SVG Version: 2.1.0 Build 108)  -->
  <defs>
    <style>
      .st0 {
        fill: #00a99d;
      }
    </style>
  </defs>
  <path class="st0" d="M150.5,76.4l22.3-28.6c33.1-23,77-8.4,90.6,28.6,21.9-49.5,84.9-53.7,110.8-4.4h6.5c22.9-50.9,79.4-41.1,108.6-.1,26-48.3,90.3-46.4,110.7,4.6,22.4-51.1,83.8-53,110.8-4.5h6.5c17-46.1,84.9-46.1,102,0h8.7c20.7-49.5,82.9-42.3,108.6,0,25.2-46.4,92.7-47.9,108.6,4.5,9.3-6,10.5-17.5,20.5-25.9,51.9-43.5,127.3,22.7,85.7,81.3-7.3,10.3-20.2,14-26.6,24.3,52.2,15.5,47.8,87.2,0,108.6,48,22,52.1,90.9,0,108.6,29.4,21.6,45.9,45.3,33,83.9-4.9,14.7-28.7,24.8-28.6,33.4,45.9,26.2,43.1,86.7-4.4,110.8,49.8,20,49.7,90.5,0,110.7,46.9,22.7,50.4,85.5,4.5,110.8v6.5c48.2,21.2,41.2,86.5-4.4,108.6,49.8,18,49.4,90.5,0,108.6,7.6,9.7,21.5,15.2,28.6,26.7,31,50.3-13.6,100.3-69.8,87.5-18.4-4.2-25.1-24-38.5-34.5-12.8,48.9-93.7,48.8-106.4,0-23.3,30.3-42.3,45.2-82.9,32-17.2-5.6-26.3-27.7-34.4-27.6-25,45.2-87.9,42.5-110.8-4.4-18.7,50.2-88.9,47.9-110.7,0-20.8,47.3-92.4,50.7-108.6,0-30,48.6-88.3,49.3-117.3,0-19.3,50.4-88,47.7-110.7,0-19.1,48.1-90.3,49.8-108.5,0-2.5-1.7-17.2,20.5-21.9,24.5-53.1,44.2-141.2-33.2-68.7-95.3,3.4-2.9,14.7-5.1,10.9-8.8-.5-.5-8.8-2.4-13.4-6.5-37.2-33.5-32.4-81.4,13.4-102-45.8-23-54.6-87.3-4.4-108.6v-8.7c-49.4-23-42.7-85.4,4.5-108.6-49.9-20.7-51.2-90.6,0-110.7-45.7-22.8-54.7-87.2-4.4-108.6v-6.5c-44.2-21.4-47.1-85.9,0-104.2v-6.5c-46.2-26.7-44.3-89,4.5-110.8-31-18.1-48.8-45.9-32.8-81.5,7.5-16.7,20.7-19.5,28.3-33.6C-23.5,89.1,101.3-23.4,150.5,76.4Z"/>
</svg>