<?xml version="1.0" encoding="utf-8"?>
<!-- Generator: Adobe Illustrator 28.1.0, SVG Export Plug-In . SVG Version: 6.00 Build 0)  -->
<svg version="1.1" id="Ebene_1" xmlns="http://www.w3.org/2000/svg" xmlns:xlink="http://www.w3.org/1999/xlink" x="0px" y="0px"
	 width="574.3px" height="178.9px" viewBox="0 0 574.3 178.9" style="enable-background:new 0 0 574.3 178.9;" xml:space="preserve"
	>
<g>
	<path d="M98.6,85.8c6.1,4.6,10,11.3,10,19c0,13.4-10.5,24.2-23.8,24.2H50.2V43h32.7c13.3,0,23.9,11,23.9,24.3
		C106.8,74.9,103.7,81.4,98.6,85.8z M62,54v26.6h20.9c7.2,0,12.5-6,12.5-13.3c0-7.2-5.3-13.3-12.5-13.3H62z M97.2,104.8
		c0-6.8-6.2-12.8-13.9-13.2H62v26.5h22.7C91.9,118.1,97.2,112.1,97.2,104.8z"/>
	<path d="M163.4,70.3h11.8V129h-11.8v-5.5c-4.2,4.5-10.5,7.3-17.4,7.3c-16.5,0-28-12.7-28-31.2c0-18.3,11.5-31,28-31
		c7.1,0,12.9,2.2,17.4,7.1V70.3z M163.4,99.6c0-12-5.4-20.6-17.4-20.6c-12,0-15.8,10.3-15.8,20.6c0,10.4,3.8,20.6,15.8,20.6
		C158,120.2,163.4,111.9,163.4,99.6z"/>
	<path d="M233.3,113c0,5.8-2.6,10.7-7.6,13.8c-3.9,2.3-8.9,3.9-15.2,3.9c-6.2,0-12.4-2.4-16.6-5.8c-3.4-2.7-6-7.3-7.1-12.7h11.7
		c1.7,4.5,6.2,8,12,8c5,0,11.1-1.2,11.1-7.1c0-4.2-4.4-5.2-10.8-7.1c-4.1-1-11.5-3.6-15-5.5c-7.3-4.1-8.8-8.6-8.8-13.7
		c0-5.6,2.9-10.5,7.7-13.9c4.2-2.8,9.6-4.5,15.5-4.5c13.4,0,21.4,8.2,23.1,18.6h-11.7c-1.6-4.6-6-8.5-11.5-8.5
		c-6.4,0-11.6,3.1-11.6,8.3c0,3,3.7,4,9.1,5.6c5.6,1.7,11.3,3.1,17.1,6.4C231.7,102.9,233.3,107,233.3,113z"/>
	<path d="M327.9,96c0,11.1-2.5,15.7-6.1,21.1c2.3,3.6,6,8.8,8,11.9h-12.4l-2.9-4.5c-5,3.9-10.8,6-17.3,6.5
		c-18,1.5-33.6-10.7-35.4-28.5c-0.9-13.2,6.8-23.7,17.3-30.7l-1.6-2.5c-1.9-2.5-3.3-5.8-3.7-9.4c-0.8-9.6,6.6-18.1,16.4-19
		c9.5-0.8,17.9,6.2,18.9,15.6c0.3,8.4-5.7,14.8-14.4,19l20.3,31c0.9-3,1.5-6.6,1.4-10.5h9.6H327.9z M308.5,115.3
		c-8.1-11.9-15.1-22.9-23.4-34.8c-7,4.8-11.7,12.5-11.3,21.2c1.6,11.2,11.1,19.9,22.7,19.1C301.1,120.4,305,118.3,308.5,115.3z
		 M285,59.1c0.1,1.3,0.9,2.6,1.7,4l2.3,3.4c1-0.5,1.5-0.7,2.5-1.1c4-1.8,6.9-4.5,6.6-8.1c-0.2-3.7-3.4-6.3-7.1-6.2
		C286.6,51.4,284.8,54.8,285,59.1z"/>
	<path d="M402,104.8h-26.6c-2.6,7.9-5.5,16.4-7.9,24.2h-12.1L383,43h11.2L422,129h-12.3L402,104.8z M398.6,93.8
		c-3.7-11.5-6.2-18.9-10-30.8c-3.3,10.4-6.4,19.8-9.9,30.8H398.6z"/>
	<path d="M481.1,105.6h-39.2c1.1,8,5.2,14.6,14.6,14.6c6,0,9.2-2.6,11.9-7.1h12.4c-5,10.8-12.6,17.6-24.3,17.6
		c-17.5,0-27.3-14-27.3-31.2c0-17.2,9.5-31.2,26.9-31.2c17.3,0,25,14,25,31.2V105.6z M441.7,94.8h27.4c-0.7-8.5-3.1-16-12.9-16
		C446.2,78.8,442.6,86.3,441.7,94.8z"/>
	<path d="M524.2,80.7c-9.5,0-17.5,4.1-17.5,21.4V129h-11.9V70.3h11.9v7.2c3.7-5.6,9.7-8.6,17.5-8.6V80.7z"/>
</g>
</svg>
