<?xml version="1.0" encoding="utf-8"?>
<!-- Generator: Adobe Illustrator 18.0.0, SVG Export Plug-In . SVG Version: 6.00 Build 0)  -->
<!DOCTYPE svg PUBLIC "-//W3C//DTD SVG 1.1//EN" "http://www.w3.org/Graphics/SVG/1.1/DTD/svg11.dtd">
<svg version="1.1" id="Layer_1" xmlns="http://www.w3.org/2000/svg" xmlns:xlink="http://www.w3.org/1999/xlink" x="0px" y="0px"
	 viewBox="0 78.9 562 534" enable-background="new 0 78.9 562 534" xml:space="preserve">
<path d="M560.8,167.3c0.4-2.7,0.1-6-0.6-9.5c-1.3-5.7-3.8-10.4-6.4-11.9c-1.1-0.7-2.1-0.6-2.7-0.5c-0.1,0-0.2,0.1-0.4,0.2l0-0.2
	l-0.8,0.6c-0.1,0.1-0.2,0.1-0.3,0.2l-2.8,2.1c-1.5,1.1-38.3,28.2-47.9,36.7c-6.7,5.9-10,5.1-11.9,4c-2.9-1.7-7.2-7.1-10.9-23.3
	c-7.3-31.7-8.3-79.6-8.3-80.1l0-1.1l-0.7-0.9c-0.2-0.2-1.2-1.4-2.9-2.4c-2.5-1.4-9-3.9-15.8,4.9l-0.7,0.8l0,1.1
	c-1.1,54.9,8.1,89.7,16.9,104.1c6.4,10.3-7.2,25.1-13.3,31c-3,2.9-5.8,6.5-9.1,10.6c-6.3,7.9-14.8,18.7-30.4,31.8
	c-7.8,6.5-13.9,11.5-19.4,16c-11,9-18.3,14.9-27.2,23.8c-5.4,5.3-17.4,18.6-31.3,34c-20.2,22.4-45.3,50.2-59,63.4l-4.8,4.6
	c-25.6,24.5-85.4,81.9-121.2,100.2c-35.2,18-69.6,40.7-91.9,60.8l-19.7,17.7c-0.5,0.4-1.1,0.6-1.5,1.1c-0.1,0.1-0.2,0.4-0.3,0.6
	l-1,0.9l0.4,0.3c-0.7,1.9-1,4.6,1,8.6c1.7,3.3,4.6,6.8,8.3,9.7c1.4,1.1,2.8,2.1,4.3,2.9c6.6,3.8,12.5,4.2,15.9,1.5l0.1,0.1l0.5-0.5
	c0.2-0.2,0.5-0.3,0.7-0.5c0.2-0.2,0.3-0.5,0.4-0.7l0.5-0.5c0.4-0.4,35.7-40.2,67.1-61.3c21.4-14.4,37.6-23.1,47.3-28.4
	c5-2.7,8.3-4.5,10.1-5.9c0.7-0.5,1.4-0.4,3.8,0c4,0.8,10.1,1.9,17.7-5.3c4.6-4.4,6.9-8.7,6.8-13c-0.1-1.9-0.6-3.5-1.2-4.7
	c10.4-9.9,57.1-54.4,66.2-60.4c6.8-4.5,12.8-12,19.1-20c4-5.1,8.2-10.3,12.6-14.8c3.4-3.4,11.7-12,22.2-23
	c24.2-25.3,60.9-63.4,69.9-71.2c10.4-8.9,24.3-20.7,29.4-25l5.5,4.2l8.6-9.3l-1-2c0-0.1-2.7-5.7,1.1-9.1c1.5-1.3,4.1-3.9,7.6-7.5
	c10.1-10.3,28.9-29.5,48.4-43.9c26.3-19.4,47.6-35.1,47.6-35.1l0.9-0.7c0.3,0,0.7,0,0.9,0C558.5,172.7,560.3,171.5,560.8,167.3z
	 M208.2,505.1c-3.4,2.9-7.6,3.6-9.3,1.6c-1.7-2-0.3-6.1,3.1-9c3.5-2.9,7.6-3.6,9.4-1.5C213.1,498.1,211.6,502.1,208.2,505.1z
	 M257.2,438c-3,3.3-7.1,4.6-9.1,2.8c-2-1.8-1.1-6,1.9-9.3c3-3.3,7.1-4.6,9.1-2.8C261.1,430.5,260.3,434.6,257.2,438z M556.3,168.8
	c-1.9,0.4-4.5-3.5-5.6-8.8c-1.2-5.3-0.6-10,1.4-10.4c1.9-0.4,4.5,3.5,5.6,8.8C558.8,163.7,558.2,168.4,556.3,168.8z"/>
</svg>
