<?xml version="1.0" encoding="utf-8"?>
<!-- Generator: Adobe Illustrator 25.0.0, SVG Export Plug-In . SVG Version: 6.00 Build 0)  -->

<svg version="1.1" id="Layer_1" xmlns="http://www.w3.org/2000/svg" xmlns:xlink="http://www.w3.org/1999/xlink" x="0px" y="0px"
	 viewBox="0 0 67.9 85.5" style="enable-background:new 0 0 67.9 85.5;" xml:space="preserve">
	 <style type="text/css">
	polygon, rect{fill:white;}
	</style>


<polygon points="11.1,34.7 5.8,40.1 8.4,42.8 13.8,37.4 "/>
<polygon points="8.4,42.8 5.8,45.4 8.4,48.1 11.1,45.4 "/>
<rect x="8.1" y="27.5" transform="matrix(0.7071 -0.7071 0.7071 0.7071 -16.7452 18.3544)" width="11.3" height="3.8"/>
<polygon points="8.4,48.1 5.8,50.8 8.4,53.4 11.1,50.8 "/>
<polygon points="19.1,85.5 27.1,77.5 24.5,74.8 19.1,80.2 3.1,64.1 0.4,66.8 "/>
<polygon points="48.5,50.8 59.2,40.1 61.9,42.8 64.6,40.1 59.2,34.7 45.8,48.1 "/>
<polygon points="24.5,21.4 27.1,18.7 21.8,13.4 13.8,21.4 16.5,24 21.8,18.7 "/>
<polygon points="8.4,53.4 0.4,61.5 3.1,64.1 11.1,56.1 "/>
<polygon points="40.5,74.8 64.6,50.8 61.9,48.1 37.8,72.2 "/>
<polygon points="61.9,48.1 64.6,45.4 61.9,42.8 59.2,45.4 "/>
<polygon points="27.1,29.4 19.1,37.4 21.8,40.1 59.2,2.7 56.5,0 29.8,26.7 24.5,21.4 21.8,24 "/>
<polygon points="27.1,77.5 29.8,80.2 37.8,72.2 35.2,69.5 "/>
<polygon points="45.8,42.8 56.5,32.1 59.2,34.7 61.9,32.1 56.5,26.7 43.2,40.1 "/>
<polygon points="67.2,5.3 61.9,0 59.2,2.7 64.6,8 "/>
<polygon points="43.2,34.7 53.9,24 56.5,26.7 59.2,24 56.5,21.4 67.2,10.7 64.6,8 40.5,32.1 "/>
</svg>
